<svg id="Layer_1" data-name="Layer 1" xmlns="http://www.w3.org/2000/svg" xmlns:xlink="http://www.w3.org/1999/xlink" viewBox="0 0 800 800"><defs><style>.cls-1{fill:url(#linear-gradient);}.cls-2{fill:#4d4d4d;}.cls-3{fill:url(#linear-gradient-2);}.cls-4{fill:url(#linear-gradient-3);}.cls-5{fill:url(#linear-gradient-4);}.cls-6{fill:url(#linear-gradient-5);}.cls-7{fill:url(#linear-gradient-6);}.cls-8{fill:url(#linear-gradient-7);}.cls-9{fill:url(#linear-gradient-8);}.cls-10{fill:url(#linear-gradient-9);}.cls-11{fill:url(#linear-gradient-10);}.cls-12{fill:url(#linear-gradient-11);}.cls-13{fill:url(#linear-gradient-12);}.cls-14{fill:url(#linear-gradient-13);}.cls-15{fill:url(#linear-gradient-14);}.cls-16{fill:url(#linear-gradient-15);}.cls-17{fill:url(#linear-gradient-16);}.cls-18{fill:url(#linear-gradient-17);}.cls-19{fill:url(#linear-gradient-18);}.cls-20{fill:url(#linear-gradient-19);}.cls-21{fill:url(#linear-gradient-20);}.cls-22{fill:url(#linear-gradient-21);}.cls-23{fill:url(#linear-gradient-22);}.cls-24{fill:url(#linear-gradient-23);}.cls-25{fill:url(#linear-gradient-24);}.cls-26{fill:url(#linear-gradient-25);}.cls-27{fill:url(#linear-gradient-26);}.cls-28{fill:url(#linear-gradient-27);}.cls-29{fill:url(#linear-gradient-28);}.cls-30{fill:url(#linear-gradient-29);}.cls-31{fill:url(#linear-gradient-30);}.cls-32{fill:url(#linear-gradient-31);}.cls-33{fill:url(#linear-gradient-32);}.cls-34{fill:url(#linear-gradient-33);}.cls-35{fill:url(#linear-gradient-34);}.cls-36{fill:url(#linear-gradient-35);}.cls-37{fill:url(#linear-gradient-36);}.cls-38{fill:url(#linear-gradient-37);}.cls-39{fill:url(#linear-gradient-38);}.cls-40{fill:url(#linear-gradient-39);}.cls-41{fill:url(#linear-gradient-40);}</style><linearGradient id="linear-gradient" x1="301.33" y1="377.52" x2="301.33" y2="419.67" gradientTransform="translate(9.65 -125.72)" gradientUnits="userSpaceOnUse"><stop offset="0" stop-color="#628039"/><stop offset="0.53" stop-color="#8cc63f"/><stop offset="1" stop-color="#8cc63f"/></linearGradient><linearGradient id="linear-gradient-2" x1="310.98" y1="277.94" x2="310.98" y2="316.07" gradientTransform="matrix(1, 0, 0, 1, 0, 0)" xlink:href="#linear-gradient"/><linearGradient id="linear-gradient-3" x1="215.42" y1="313.67" x2="215.42" y2="338.19" gradientTransform="matrix(1, 0, 0, 1, 0, 0)" xlink:href="#linear-gradient"/><linearGradient id="linear-gradient-4" x1="307.15" y1="309.75" x2="307.15" y2="334.66" gradientTransform="matrix(1, 0, 0, 1, 0, 0)" xlink:href="#linear-gradient"/><linearGradient id="linear-gradient-5" x1="400.34" y1="304.07" x2="400.34" y2="332.2" gradientTransform="matrix(1, 0, 0, 1, 0, 0)" xlink:href="#linear-gradient"/><linearGradient id="linear-gradient-6" x1="214.06" y1="336.69" x2="214.06" y2="360.3" gradientTransform="matrix(1, 0, 0, 1, 0, 0)" xlink:href="#linear-gradient"/><linearGradient id="linear-gradient-7" x1="307.15" y1="333.99" x2="307.15" y2="358.54" gradientTransform="matrix(1, 0, 0, 1, 0, 0)" xlink:href="#linear-gradient"/><linearGradient id="linear-gradient-8" x1="400.34" y1="330.21" x2="400.34" y2="357.31" gradientTransform="matrix(1, 0, 0, 1, 0, 0)" xlink:href="#linear-gradient"/><linearGradient id="linear-gradient-9" x1="214.06" y1="359.58" x2="214.06" y2="382.42" gradientTransform="matrix(1, 0, 0, 1, 0, 0)" xlink:href="#linear-gradient"/><linearGradient id="linear-gradient-10" x1="307.15" y1="358.23" x2="307.15" y2="382.42" gradientTransform="matrix(1, 0, 0, 1, 0, 0)" xlink:href="#linear-gradient"/><linearGradient id="linear-gradient-11" x1="400.34" y1="356.34" x2="400.34" y2="382.42" gradientTransform="matrix(1, 0, 0, 1, 0, 0)" xlink:href="#linear-gradient"/><linearGradient id="linear-gradient-12" x1="214.06" y1="382.47" x2="214.06" y2="405.31" gradientTransform="matrix(1, 0, 0, 1, 0, 0)" xlink:href="#linear-gradient"/><linearGradient id="linear-gradient-13" x1="363.67" y1="382.47" x2="363.67" y2="408.55" gradientTransform="matrix(1, 0, 0, 1, 0, 0)" xlink:href="#linear-gradient"/><linearGradient id="linear-gradient-14" x1="214.06" y1="404.59" x2="214.06" y2="428.2" gradientTransform="matrix(1, 0, 0, 1, 0, 0)" xlink:href="#linear-gradient"/><linearGradient id="linear-gradient-15" x1="363.67" y1="406.35" x2="363.67" y2="434.69" gradientTransform="matrix(1, 0, 0, 1, 0, 0)" xlink:href="#linear-gradient"/><linearGradient id="linear-gradient-16" x1="214.06" y1="426.71" x2="214.06" y2="451.09" gradientTransform="matrix(1, 0, 0, 1, 0, 0)" xlink:href="#linear-gradient"/><linearGradient id="linear-gradient-17" x1="363.67" y1="430.24" x2="363.67" y2="460.82" gradientTransform="matrix(1, 0, 0, 1, 0, 0)" xlink:href="#linear-gradient"/><linearGradient id="linear-gradient-18" x1="214.06" y1="448.82" x2="214.06" y2="473.98" gradientTransform="matrix(1, 0, 0, 1, 0, 0)" xlink:href="#linear-gradient"/><linearGradient id="linear-gradient-19" x1="363.67" y1="454.12" x2="363.67" y2="486.95" gradientTransform="matrix(1, 0, 0, 1, 0, 0)" xlink:href="#linear-gradient"/><linearGradient id="linear-gradient-20" x1="214.06" y1="470.94" x2="214.06" y2="496.87" gradientTransform="matrix(1, 0, 0, 1, 0, 0)" xlink:href="#linear-gradient"/><linearGradient id="linear-gradient-21" x1="363.67" y1="478" x2="363.67" y2="513.09" gradientTransform="matrix(1, 0, 0, 1, 0, 0)" xlink:href="#linear-gradient"/><linearGradient id="linear-gradient-22" x1="7181.19" y1="395.67" x2="7186.91" y2="420.42" gradientTransform="matrix(-1, 0, 0, 1, 7690.75, -125.72)" xlink:href="#linear-gradient"/><linearGradient id="linear-gradient-23" x1="436.34" y1="264.61" x2="435.79" y2="266.99" gradientTransform="matrix(1, 0, 0, 1, 0, 0)" xlink:href="#linear-gradient"/><linearGradient id="linear-gradient-24" x1="7191.51" y1="293.08" x2="7196.4" y2="318.21" gradientTransform="matrix(-1, 0, 0, 1, 7700.4, 0)" xlink:href="#linear-gradient"/><linearGradient id="linear-gradient-25" x1="580.47" y1="319.01" x2="580.14" y2="320.67" gradientTransform="matrix(1, 0, 0, 1, 0, 0)" xlink:href="#linear-gradient"/><linearGradient id="linear-gradient-26" x1="436.3" y1="290.45" x2="435.83" y2="292.86" gradientTransform="matrix(1, 0, 0, 1, 0, 0)" xlink:href="#linear-gradient"/><linearGradient id="linear-gradient-27" x1="7192.1" y1="316.32" x2="7196.13" y2="341.76" gradientTransform="matrix(-1, 0, 0, 1, 7700.4, 0)" xlink:href="#linear-gradient"/><linearGradient id="linear-gradient-28" x1="580.44" y1="336.82" x2="580.17" y2="338.51" gradientTransform="matrix(1, 0, 0, 1, 0, 0)" xlink:href="#linear-gradient"/><linearGradient id="linear-gradient-29" x1="436.26" y1="316.28" x2="435.87" y2="318.73" gradientTransform="matrix(1, 0, 0, 1, 0, 0)" xlink:href="#linear-gradient"/><linearGradient id="linear-gradient-30" x1="7192.64" y1="336.92" x2="7194.91" y2="362.8" gradientTransform="matrix(-1, 0, 0, 1, 7700.4, 0)" xlink:href="#linear-gradient"/><linearGradient id="linear-gradient-31" x1="580.38" y1="354.63" x2="580.23" y2="356.35" gradientTransform="matrix(1, 0, 0, 1, 0, 0)" xlink:href="#linear-gradient"/><linearGradient id="linear-gradient-32" x1="436.18" y1="342.11" x2="435.96" y2="344.6" gradientTransform="matrix(1, 0, 0, 1, 0, 0)" xlink:href="#linear-gradient"/><linearGradient id="linear-gradient-33" x1="7192.87" y1="359.52" x2="7194.84" y2="387.63" gradientTransform="matrix(-1, 0, 0, 1, 7700.4, 0)" xlink:href="#linear-gradient"/><linearGradient id="linear-gradient-34" x1="580.37" y1="372.46" x2="580.25" y2="374.18" gradientTransform="matrix(1, 0, 0, 1, 0, 0)" xlink:href="#linear-gradient"/><linearGradient id="linear-gradient-35" x1="436.15" y1="367.96" x2="435.98" y2="370.45" gradientTransform="matrix(1, 0, 0, 1, 0, 0)" xlink:href="#linear-gradient"/><linearGradient id="linear-gradient-36" x1="7193.56" y1="382.47" x2="7193.56" y2="408.55" gradientTransform="matrix(-1, 0, 0, 1, 7700.4, 0)" xlink:href="#linear-gradient"/><linearGradient id="linear-gradient-37" x1="7193.56" y1="400.16" x2="7193.56" y2="434.69" gradientTransform="matrix(-1, 0, 0, 1, 7700.4, 0)" xlink:href="#linear-gradient"/><linearGradient id="linear-gradient-38" x1="7193.56" y1="417.85" x2="7193.56" y2="460.82" gradientTransform="matrix(-1, 0, 0, 1, 7700.4, 0)" xlink:href="#linear-gradient"/><linearGradient id="linear-gradient-39" x1="7193.56" y1="435.55" x2="7193.56" y2="486.95" gradientTransform="matrix(-1, 0, 0, 1, 7700.4, 0)" xlink:href="#linear-gradient"/><linearGradient id="linear-gradient-40" x1="7193.56" y1="453.24" x2="7193.56" y2="513.09" gradientTransform="matrix(-1, 0, 0, 1, 7700.4, 0)" xlink:href="#linear-gradient"/></defs><title>KasiLam</title><polygon class="cls-1" points="430.96 251.81 191 271.88 191 293.95 430.96 277.88 430.96 251.81"/><path class="cls-2" d="M196.4,282.24c0,.59-.32,1.1-.71,1.13s-.71-.43-.71-1,.32-1.1.71-1.13S196.4,281.64,196.4,282.24Z"/><path class="cls-2" d="M425.45,264.94a1.25,1.25,0,0,1-1,1.33c-.54,0-1-.49-1-1.19a1.25,1.25,0,0,1,1-1.33C425,263.71,425.45,264.25,425.45,264.94Z"/><polygon class="cls-3" points="430.96 277.94 191 294 191 316.07 430.96 304.01 430.96 277.94"/><path class="cls-2" d="M196.4,304.45c0,.59-.32,1.09-.71,1.12s-.71-.44-.71-1,.32-1.09.71-1.12S196.4,303.85,196.4,304.45Z"/><path class="cls-2" d="M425.45,291a1.23,1.23,0,0,1-1,1.32c-.54,0-1-.51-1-1.2a1.23,1.23,0,0,1,1-1.32C425,289.75,425.45,290.29,425.45,291Z"/><polygon class="cls-4" points="191 316.12 239.84 313.67 237.12 313.81 237.12 336.64 191 338.19 191 316.12"/><polygon class="cls-5" points="296.38 310.83 317.92 309.75 317.92 333.94 296.38 334.66 296.38 310.83"/><polygon class="cls-6" points="430.96 304.07 430.96 330.15 369.72 332.2 369.72 307.15 430.96 304.07"/><path class="cls-2" d="M196.4,326.66c0,.59-.32,1.09-.71,1.11s-.71-.45-.71-1,.32-1.09.71-1.11S196.4,326.06,196.4,326.66Z"/><path class="cls-2" d="M425.45,317a1.2,1.2,0,0,1-1,1.3c-.54,0-1-.52-1-1.22a1.2,1.2,0,0,1,1-1.3C425,315.78,425.45,316.33,425.45,317Z"/><polygon class="cls-7" points="191 338.23 237.12 336.69 237.12 359.53 191 360.3 191 338.23"/><polygon class="cls-8" points="296.38 334.71 317.92 333.99 317.92 358.18 296.38 358.54 296.38 334.71"/><polygon class="cls-9" points="430.96 330.21 430.96 356.28 369.72 357.31 369.72 332.26 430.96 330.21"/><path class="cls-2" d="M196.4,348.86c0,.59-.32,1.08-.71,1.09s-.71-.46-.71-1.06.32-1.08.71-1.09S196.4,348.27,196.4,348.86Z"/><path class="cls-2" d="M425.45,343.07a1.18,1.18,0,0,1-1,1.29c-.54,0-1-.54-1-1.24a1.18,1.18,0,0,1,1-1.29C425,341.82,425.45,342.37,425.45,343.07Z"/><polygon class="cls-10" points="191 360.35 237.12 359.58 237.12 382.42 191 382.42 191 360.35"/><polygon class="cls-11" points="296.38 358.59 317.92 358.23 317.92 382.42 296.38 382.42 296.38 358.59"/><polygon class="cls-12" points="430.96 356.34 430.96 382.42 369.72 382.42 369.72 357.37 430.96 356.34"/><path class="cls-2" d="M196.4,371.07c0,.59-.32,1.08-.71,1.08s-.71-.48-.71-1.07.32-1.08.71-1.08S196.4,370.48,196.4,371.07Z"/><path class="cls-2" d="M425.45,369.11a1.16,1.16,0,0,1-1,1.27,1.13,1.13,0,0,1-1-1.25,1.16,1.16,0,0,1,1-1.27A1.13,1.13,0,0,1,425.45,369.11Z"/><polygon class="cls-13" points="191 382.47 237.12 382.47 237.12 405.31 191 404.54 191 382.47"/><polygon class="cls-14" points="430.96 382.48 430.96 408.55 296.38 406.3 296.38 382.47 329.14 382.47 369.72 382.47 430.96 382.48"/><path class="cls-2" d="M196.4,393.28c0,.59-.32,1.07-.71,1.07s-.71-.49-.71-1.08.32-1.07.71-1.07S196.4,392.69,196.4,393.28Z"/><path class="cls-2" d="M425.45,395.15a1.13,1.13,0,0,1-1,1.25,1.16,1.16,0,0,1-1-1.27,1.13,1.13,0,0,1,1-1.25A1.16,1.16,0,0,1,425.45,395.15Z"/><polygon class="cls-15" points="191 404.59 237.12 405.36 237.12 428.2 191 426.66 191 404.59"/><polygon class="cls-16" points="430.96 408.61 430.96 434.69 296.38 430.18 296.38 406.36 430.96 408.61"/><path class="cls-2" d="M196.4,415.49c0,.59-.32,1.07-.71,1.06s-.71-.5-.71-1.09.32-1.07.71-1.06S196.4,414.9,196.4,415.49Z"/><path class="cls-2" d="M425.45,421.19c0,.7-.44,1.25-1,1.24a1.18,1.18,0,0,1-1-1.29c0-.7.44-1.25,1-1.24A1.18,1.18,0,0,1,425.45,421.19Z"/><polygon class="cls-17" points="191 426.71 237.12 428.25 237.12 451.09 191 448.78 191 426.71"/><polygon class="cls-18" points="430.96 434.74 430.96 460.82 296.38 454.06 296.38 430.24 430.96 434.74"/><path class="cls-2" d="M196.4,437.7c0,.59-.32,1.06-.71,1s-.71-.51-.71-1.11.32-1.06.71-1S196.4,437.1,196.4,437.7Z"/><path class="cls-2" d="M425.45,447.24c0,.7-.44,1.24-1,1.22a1.2,1.2,0,0,1-1-1.3c0-.7.44-1.24,1-1.22A1.2,1.2,0,0,1,425.45,447.24Z"/><polygon class="cls-19" points="191 448.82 237.12 451.14 237.12 473.98 191 470.89 191 448.82"/><polygon class="cls-20" points="430.96 460.88 430.96 486.95 296.38 477.95 296.38 454.12 430.96 460.88"/><path class="cls-2" d="M196.4,459.91c0,.59-.32,1.06-.71,1s-.71-.52-.71-1.12.32-1.06.71-1S196.4,459.31,196.4,459.91Z"/><path class="cls-2" d="M425.45,473.28c0,.7-.44,1.24-1,1.2a1.23,1.23,0,0,1-1-1.32c0-.7.44-1.24,1-1.2A1.23,1.23,0,0,1,425.45,473.28Z"/><polygon class="cls-21" points="191 470.94 237.12 474.03 237.12 496.87 191 493.01 191 470.94"/><polygon class="cls-22" points="430.96 487.01 430.96 513.09 296.38 501.83 296.38 478 430.96 487.01"/><path class="cls-2" d="M196.4,482.12c0,.59-.32,1.05-.71,1S195,482.6,195,482s.32-1.05.71-1S196.4,481.52,196.4,482.12Z"/><path class="cls-2" d="M425.45,499.32c0,.7-.44,1.23-1,1.19a1.25,1.25,0,0,1-1-1.33c0-.7.44-1.23,1-1.19A1.25,1.25,0,0,1,425.45,499.32Z"/><polygon class="cls-23" points="430.98 251.8 582.69 294 582.69 311.65 430.98 277.88 430.98 251.8"/><path class="cls-24" d="M435.31,265.61c0,.69.34,1.34.76,1.44s.76-.37.76-1.06-.34-1.34-.76-1.44S435.31,264.92,435.31,265.61Z"/><polygon class="cls-25" points="430.98 277.94 582.69 311.69 582.69 329.35 430.98 304.01 430.98 277.94"/><path class="cls-26" d="M579.95,319.77c0,.48.16.9.36.93s.36-.32.36-.79-.16-.89-.36-.93S579.95,319.29,579.95,319.77Z"/><path class="cls-27" d="M435.31,291.51c0,.69.34,1.32.76,1.4s.76-.41.76-1.1-.34-1.32-.76-1.4S435.31,290.81,435.31,291.51Z"/><polygon class="cls-28" points="430.98 304.07 582.69 329.38 582.69 347.04 430.98 330.15 430.98 304.07"/><path class="cls-29" d="M579.95,337.61c0,.48.16.89.36.91s.36-.34.36-.81-.16-.89-.36-.91S579.95,337.14,579.95,337.61Z"/><path class="cls-30" d="M435.31,317.4c0,.69.34,1.3.76,1.36s.76-.46.76-1.15-.34-1.3-.76-1.36S435.31,316.71,435.31,317.4Z"/><polygon class="cls-31" points="430.98 330.21 582.69 347.08 582.69 364.73 430.98 356.28 430.98 330.21"/><path class="cls-32" d="M579.95,355.46c0,.48.16.88.36.89s.36-.36.36-.83-.16-.88-.36-.89S579.95,355,579.95,355.46Z"/><path class="cls-33" d="M435.31,343.29c0,.69.34,1.28.76,1.32s.76-.5.76-1.19-.34-1.28-.76-1.32S435.31,342.6,435.31,343.29Z"/><polygon class="cls-34" points="430.98 356.34 582.69 364.77 582.69 382.43 430.98 382.42 430.98 356.34"/><path class="cls-35" d="M579.95,373.31c0,.48.16.87.36.87s.36-.38.36-.85-.16-.87-.36-.87S579.95,372.83,579.95,373.31Z"/><path class="cls-36" d="M435.31,369.19c0,.69.34,1.26.76,1.27s.76-.54.76-1.23-.34-1.26-.76-1.27S435.31,368.49,435.31,369.19Z"/><polygon class="cls-37" points="430.98 382.48 582.69 382.47 582.69 400.12 430.98 408.55 430.98 382.48"/><path class="cls-2" d="M579.95,391.15c0,.48.16.86.36.85s.36-.4.36-.87-.16-.86-.36-.85S579.95,390.68,579.95,391.15Z"/><path class="cls-2" d="M435.31,395.08c0,.69.34,1.24.76,1.23s.76-.58.76-1.27-.34-1.24-.76-1.23S435.31,394.39,435.31,395.08Z"/><polygon class="cls-38" points="430.98 408.61 582.69 400.16 582.69 417.81 430.98 434.69 430.98 408.61"/><path class="cls-2" d="M579.95,409c0,.48.16.85.36.83s.36-.42.36-.89-.16-.85-.36-.83S579.95,408.52,579.95,409Z"/><path class="cls-2" d="M435.31,421c0,.69.34,1.23.76,1.19s.76-.62.76-1.32-.34-1.22-.76-1.19S435.31,420.28,435.31,421Z"/><polygon class="cls-39" points="430.98 434.74 582.69 417.85 582.69 435.51 430.98 460.82 430.98 434.74"/><path class="cls-2" d="M579.95,426.85c0,.48.16.84.36.81s.36-.44.36-.91-.16-.84-.36-.81S579.95,426.37,579.95,426.85Z"/><path class="cls-2" d="M435.31,446.87c0,.69.34,1.21.76,1.15s.76-.67.76-1.36-.34-1.2-.76-1.15S435.31,446.17,435.31,446.87Z"/><polygon class="cls-40" points="430.98 460.88 582.69 435.55 582.69 453.2 430.98 486.95 430.98 460.88"/><path class="cls-2" d="M579.95,444.69c0,.48.16.83.36.79s.36-.46.36-.93-.16-.83-.36-.79S579.95,444.21,579.95,444.69Z"/><path class="cls-2" d="M435.31,472.76c0,.69.34,1.19.76,1.11s.76-.71.76-1.4-.34-1.19-.76-1.11S435.31,472.07,435.31,472.76Z"/><polygon class="cls-41" points="430.98 487.01 582.69 453.24 582.69 470.89 430.98 513.09 430.98 487.01"/><path class="cls-2" d="M579.95,462.54c0,.48.16.82.36.77s.36-.48.36-1-.16-.82-.36-.77S579.95,462.06,579.95,462.54Z"/><path class="cls-2" d="M435.31,498.65c0,.69.34,1.17.76,1.06s.76-.75.76-1.44-.34-1.17-.76-1.06S435.31,498,435.31,498.65Z"/></svg>